<?xml version="1.0" encoding="utf-8"?>
<!-- Svg Vector Icons : http://www.onlinewebfonts.com/icon -->
<!DOCTYPE svg PUBLIC "-//W3C//DTD SVG 1.1//EN" "http://www.w3.org/Graphics/SVG/1.1/DTD/svg11.dtd">
<svg version="1.1" xmlns="http://www.w3.org/2000/svg" xmlns:xlink="http://www.w3.org/1999/xlink" x="0px" y="0px" viewBox="0 0 256 256" enable-background="new 0 0 256 256" xml:space="preserve">
<metadata> Svg Vector Icons : http://www.onlinewebfonts.com/icon </metadata>
<g><g><g><path fill="#803EB0" d="M61.2,41.4c-0.1,0.2-11.7,19.9-25.7,43.9c-14,24-25.5,43.8-25.5,44c0,0.7,26.5,15.9,26.9,15.5c0.2-0.2,1.4-2.2,2.7-4.3l2.2-3.9l0.7,1.8c0.4,1,0.7,1.9,0.7,2c0,0.1,0.7,1.5,1.7,3l1.7,2.7l-1.3,2.9c-1.2,2.5-1.3,3.4-1.3,7.3c0,3.9,0.1,4.7,1.3,7.3c2.4,5.1,7.2,8.7,12.6,9.3l2.5,0.3v1.9c0,3.6,1.3,6.7,4.2,9.5c3.5,3.6,6.6,4.7,12.2,4.5c3.4-0.1,4,0,4,0.6c0,0.4,0.6,2,1.4,3.6c3.2,6.4,11.5,9.8,18.8,7.7c0.8-0.3,1.1,0,1.8,1.3c3.2,6.8,12.2,10.3,20,7.8l3-0.9l5.1,2.5c6.2,3,10,3.8,14.3,3.1c5.6-1.1,10.2-4,13.1-8.7c1.4-2.2,1.7-2.4,4.3-2.9c6.3-1.2,11.1-4.6,13.7-9.9c0.9-1.8,1.6-3.7,1.6-4.3c0-1.1,0.8-2.1,1.7-2.1c1.6,0,6.1-2.2,7.9-3.8c2.6-2.4,4.1-5,4.9-8.4c0.6-2.5,0.7-2.7,2.5-3.2c8.5-2.5,14-11.3,12.2-19.3c-0.6-2.5-0.6-2.6,0.6-4c1.6-1.9,4.3-6.7,5-9c0.3-1,0.7-2,0.9-2.2c0.2-0.2,1.4,1.5,2.7,3.8c1.3,2.3,2.6,4.3,2.8,4.4c0.5,0.3,26.9-15,26.9-15.6c0-0.2-11.6-20.2-25.7-44.3l-25.7-43.9l-8.4,4.9c-4.6,2.7-10.8,6.2-13.7,7.9c-2.8,1.7-5.1,3.1-5,3.3c0.1,0.2,1,1.8,2.1,3.5c1.1,1.7,1.9,3.2,1.7,3.4c-0.1,0.1-2.4-0.2-5-0.8c-6.6-1.4-16.3-2.7-22.4-3.1c-5.6-0.3-9,0.1-13.1,1.8l-2.6,1.1l-2-1.1c-2.9-1.6-6.3-2.4-10.6-2.4c-5.8,0-19.9,1.9-27.2,3.7c-2,0.5-3.7,0.8-3.8,0.7c-0.1-0.1,0.7-1.8,1.9-3.7l2.1-3.5l-6.8-3.9c-3.7-2.2-9.9-5.7-13.6-7.9C64.5,42.9,61.3,41.2,61.2,41.4z M113.9,72.1C105,78.4,95.2,87.6,87,97.2c-4.6,5.4-5.5,6.9-6.2,10.5c-1.2,6.3,2.9,13.7,9.3,16.7c3.3,1.5,7.6,1.6,10.6,0.2c1.2-0.6,8.3-5.2,16-10.5c18.3-12.6,19.6-13.3,23.9-13.6l3.4-0.2l4.9,5.4c11.6,13,35.1,35.7,46.1,44.7c3.1,2.5,3.8,4.3,2.5,7c-1.6,3.6-5.6,5.9-9,5.3c-2.2-0.4-5.3-2.1-9.8-5.4c-6.2-4.4-8.3-5-10.5-2.8c-1.1,1.1-1.3,1.8-1.3,3.2c0,1.6,0.3,2.3,1.9,4c2,2.2,7.1,5.6,11.9,8.1c3.2,1.6,3.2,1.9,1.5,4.9c-1.3,2.4-3,3.3-6.2,3.3c-3.6,0-6.5-1.3-12.4-5.5c-2.3-1.7-5-3.2-5.8-3.5c-3.1-0.9-5.7,1.1-5.7,4.3c0,3.1,3.7,6.5,11.8,10.6c2.7,1.3,4.9,2.7,4.9,3.1c0,1.1-1.8,4.2-3,5.1c-1.9,1.6-5.6,2.5-8.5,2.3c-2.9-0.2-5.8-1.7-12.2-6.5c-2.7-2-4-2.7-5.2-2.7c-1.9,0-4.2,1.9-4.6,3.7c-0.6,2.7,0.3,3.8,7.7,8.6c6.8,4.4,6.9,4.5,6.1,5.4c-1.3,1.5-4.3,2.6-7.1,2.6c-2.8,0-2.1,0.4-20.8-10.6l-8.2-4.8l0.5-1.7c0.3-1,0.4-2.9,0.2-4.4c-0.7-7.5-7.5-14.1-15-14.6c-1.7-0.1-3-0.4-3.1-0.7c-1.3-4.8-1.9-6-4.2-8.6c-2.9-3.1-6-4.7-9.9-5.1l-2.5-0.3l-0.4-2c-0.9-5.3-4.6-10-10-12.7c-2.8-1.4-3.5-1.5-7-1.5c-2.6,0-4.5,0.3-5.7,0.8l-1.8,0.7l-1.4-2.2c-1.9-3.1-2.9-6.7-2.9-11v-3.7L62,102.1c8.6-14.5,13-21.6,14.2-22.7c2.5-2.3,7.4-4.8,12.1-6.2c6.8-1.9,19.1-3.7,26.5-3.9l3.2,0L113.9,72.1z M155.3,71.1c12.9,1.9,19.2,3.7,23.4,6.8c1.6,1.2,4,5,14.5,23l12.7,21.7l-0.3,4.2c-0.1,3-0.6,5.3-1.5,7.7c-1.4,3.8-3.3,7.4-3.9,7.4c-1.3,0-22.6-19.9-33.6-31.3c-7.6-7.9-8.1-8.6-6.7-8.3c6.5,1.4,8.8,0.3,8.8-4.1c0-2.4-1.5-3.8-5.3-4.8c-12.2-3.4-25.6-3.6-31.6-0.6c-2.8,1.4-15.2,9.6-27.8,18.3c-4.6,3.1-7.6,4.9-8.3,4.9c-3.7,0-6.7-4.9-5-8c0.6-1.1,17.4-18.7,20.5-21.6c7.7-7,18.7-14.2,24.5-16C138.7,69.4,144.9,69.6,155.3,71.1z M65.3,149c2.2,1.3,4,4.1,4,6.2c0,4.2-4.6,7.9-9.7,7.9c-1.9,0-2.6-0.2-3.9-1.4c-4-3.5-2.9-9.9,2.2-13C59.9,147.5,62.9,147.7,65.3,149z M84.1,166.4c1.6,1.6,1.8,2,1.8,3.9c0,2.6-0.7,4.1-3.1,6.4c-2.2,2.1-4.6,3.1-7.4,3.1c-1.8,0-2.4-0.2-3.7-1.6c-1.3-1.3-1.6-1.9-1.6-3.3c0-3.2,3.2-8.1,6.2-9.7c0.8-0.4,2.4-0.7,3.7-0.7C82,164.6,82.5,164.8,84.1,166.4z M100.1,179.4c5.2,2.5,5,9-0.5,11.8c-3.1,1.6-8.1,0.2-9.2-2.5c-1.2-3.2,0.6-7.7,4-9.3C96.8,178.2,97.6,178.2,100.1,179.4z"/></g></g></g>
</svg>