<?xml version="1.0" encoding="UTF-8"?>
<svg version="1.1" viewBox="0 0 2000 2000" width="500" height="500" xmlns="http://www.w3.org/2000/svg">
<path transform="translate(972)" 
d="m0 0h51l9 2 37 8 26 9 29 14 21 12 16 11 14 11 11 9 13 11 17 16 10 10 7 8 12 13 11 14 14 18 16 23 18 27 2 1 22-8 30-8 39-9 43-8 24-3 40-2h32l39 3 28 5 26 7 8 2 5-5 9-8 15-9 18-6 14-2h20l17 4 17 8 12 9 8 7 12 16 7 14 5 17 2 19-3 21-6 16-4 8-5 8 1 5 9 19 9 24 7 26 5 27 3 25 1 14v45l-3 34-5 38-6 31-9 37-11 39-3 10v3l21 13 20 14 13 10 10 8 11 9 14 12 24 22 7 7 7 8 11 12 11 14 13 17 14 22 10 18 11 24 11 33 5 23 2 23v40l-3 25-5 21-8 24-9 21-13 25-10 15-14 20-13 16-9 11-39 39-11 9-14 11-11 9-16 12-19 13-17 11-5 2 12 40 10 40 8 40 5 37 3 36v42l-2 24-3 23-6 29-6 20-7 20-14 29-12 19-12 16-9 11-10 11-8 7-15 12-21 14-16 9-14 7-24 9-23 7-31 6-43 4h-49l-32-3-29-4-36-6-36-9-41-12-9-3h-3l-13 21-12 17-8 11-10 13-9 11-11 13-11 12-9 10-23 23-11 9-14 11-18 13-16 10-15 9-23 11-29 11-17 5-16 3-22 2h-41l-22-2-20-4-21-7-27-11-17-8-21-13-19-13-16-12-13-11-10-9-14-13-7-8-12-13-9-11-12-14-13-17-13-18-11-17-9-14-12 3-49 14-34 8-37 6-44 5-13 1h-48l-34-3-20-3-23-5-30-10-25-11-21-12-18-13-10-8-10-9-18-18-15-20-12-19-8-16-8-18-10-30-6-27-4-27-2-25v-47l2-28 5-38 7-36 7-29 8-30 8-26 1-4-5-2-18-11-23-16-14-11-17-14-10-8-10-9-13-12-18-18-7-8-12-14-14-19-12-18-10-17-11-22-7-17-8-25-5-24-3-16v-55l8-35 6-20 11-26 12-23 11-18 12-17 11-14 12-14 9-10 14-15 15-14 10-9 11-9 17-14 19-14 19-13 19-12-3-12-9-31-9-36-6-28v-2h-15l-10-2-16-6-13-7-13-11-10-11-9-15-5-14-3-14-1-10v-11l3-16 5-13 8-15 11-13 7-7 15-10 11-5 16-4 8-1h9l2-13 8-27 8-20 12-25 10-16 10-14 11-13 9-10 11-11 11-9 13-10 15-9 23-12 26-10 26-8 26-5 20-3 28-2h34l39 2 30 4 43 8 49 12 24 7 15 5 11-18 10-15 10-14 9-12 10-13 11-13 9-10 7-8 25-25 8-7 17-14 20-15 22-14 29-15 19-8 18-6 21-5zm8 32-24 3-24 6-24 9-23 11-22 13-17 12-13 10-10 9-10 8v2l-4 2-28 28-9 11-11 13-8 11-14 19-18 27 2 3 40 16 31 13 27 12 35 17 35 18 24 14 18 10 20 12 23 14 21 13 11-6 17-11 25-15 22-13 23-13 22-12 35-18 28-13 27-12 39-16 26-10v-4l-14-21-14-19-16-21-9-11-14-15-29-29-8-7-15-12-18-13-18-11-22-12-25-10-19-6-20-4-18-2zm-531 179-36 4-27 6-24 7-23 10-19 10-16 11-14 11-7 7-6 5-7 8-11 13-11 17-13 25-8 20-8 27-1 8 8 5 13 7 11 9 7 7 9 13 7 15 4 15 1 6v25l-5 19-8 16-6 9-6 7-14 11-14 8-5 3 5 25 12 48 7 24 4 1 26-14 21-11 28-13 33-15 34-13 37-13 53-17 42-12 32-8 3-3 13-49 13-43 14-43 12-33 17-42 18-40 21-42 7-12 1-4-7-3-36-10-37-9-43-8-36-4-19-1zm1047 0-29 2-29 4-28 5-31 7-31 8-27 8 2 6 17 32 15 31 20 47 13 33 14 40 13 41 12 42 10 38 8 3 39 10 58 18 46 15 45 17 25 11 34 16 27 13 22 12 6 3h2l5-16 10-37 6-26 6-32 4-29 3-37v-41l-3-32-5-28-7-26-8-22-5-10-5 2-16 7-15 4h-28l-12-3-17-7-10-6-13-11-8-9-8-14-5-12-4-15-1-8v-11l3-17 3-10v-3l-39-9-25-3-15-1zm-792 45-9 15-6 12-10 19-12 25-14 32-14 35-13 35-15 45-10 34-10 38v3l20-4 27-6 68-11 39-6 45-5 9-3 14-12 14-11 16-13 20-15 14-11 36-26 14-10 20-14 13-9 8-6-3-3-14-8-21-13-27-15-24-13-46-25-28-13-35-16-40-16-24-9zm584 0-39 15-29 12-30 14-29 13-26 13-23 13-27 15-23 13-24 15-11 6 2 4 17 12 23 16 18 13 14 10 19 14 26 20 16 13 14 11 13 11 10 7 63 8 89 14 52 11-1-7-12-44-14-45-13-38-15-39-14-33-13-29-19-38-11-20zm-292 150-33 22-19 13-12 9-14 10-21 16-19 14-14 11-11 9v1l39-2 56-2h94l38 1 41 2 19 1v-2l-11-9-14-11-12-9-19-14-16-12-18-13-19-13-28-19-5-3zm-37 132-45 1-40 2-63 5-6 3v2l-4 2-11 10-8 7-14 12-10 9-11 9-17 16-11 11-2 1v2h-2v2l-4 2-17 17-8 7-58 58-7 8-8 8-7 8-11 12-7 8-9 10-9 11-10 11-9 11-4 5-1 3-3 31-3 43-2 49v125l2 50 4 56 2 18 4 7 10 11 7 8 12 14 9 10 7 8 11 12 7 8 14 15 12 13 72 72 8 7 7 7h2v2l8 7 16 15 10 9 11 10 11 9 11 10 11 9 3 2 18 2 55 4 47 2 36 1h60l72-2 58-4 23-2 9-2 10-9 11-9 10-9 8-7 13-12 8-7 10-9 12-11 10-10 8-7 25-25 8-7 4-5 6-5 6-7 6-5 7-8 17-17v-2l3-1 7-8 9-9 7-8 12-13 7-8 12-13 11-13 9-11 5-6 4-50 3-51 1-24v-127l-2-45-3-46-3-34-9-11-10-11-9-11-9-10-7-8-11-12-7-8-9-10-15-16-14-14-2-3h-2l-2-4-24-24-8-7-20-20-8-7-33-31-12-11-8-7-10-9-8-7-14-12-11-9-27-3-57-4-22-1-47-1zm-213 15-49 7-46 8-45 9-22 5-2 2-8 36-10 53-9 58-3 20 4-1 14-15 7-8 24-26 7-7 7-8 19-19 7-8 23-23 2-1v-2l4-2 23-23 8-7 9-9 8-7 13-12 8-7 12-11 1-2zm497 0 6 7 12 12 8 7 15 14 10 9 7 7 8 7 15 15 8 7 35 35 7 8 22 22 7 8 11 12 9 10 14 15 4 3-1-13-11-71-10-52-7-32-15-4-44-9-38-7-47-7-20-3zm203 38 2 13 10 52 8 48 7 52 4 34 3 9 8 9 8 10 11 13 13 17 12 15 14 19 26 36 28 40 6 9 3-1 14-23 14-24 12-21 14-25 14-27 19-38 16-36 8-19 13-33 5-13-1-4-23-13-32-16-28-13-18-8-36-14-38-14-36-12-44-13-34-9zm-900 0-45 12-39 12-47 16-29 11-33 13-35 16-35 17-23 13-4 2 1 6 15 39 13 30 13 29 12 25 15 30 12 22 13 24 12 20 14 23 9 15h4l13-19 7-10 12-17 13-18 14-19 13-17 10-13 14-18 9-11 13-16 9-12 8-64 7-47 11-61 6-28v-5zm-320 131-10 6-19 13-12 9-13 10-16 13-14 12-12 11-21 21-11 14-12 15-7 10-10 15-10 18-10 21-9 25-6 25-2 14-1 27 2 24 4 22 6 21 8 21 9 19 13 22 8 12 13 17 9 10 7 8 9 10 24 24 11 9 14 12 20 15 24 16 13 9 4 1 6-17 17-42 13-29 12-25 22-44 12-22 16-29 13-22 12-20 14-22 2-5-11-17-12-19-17-29-14-25-10-18-18-35-17-34-16-36-14-34-9-25zm1539 0-9 24-14 34-11 25-14 30-13 27-10 19-16 30-14 24-13 22-15 24-9 14 1 5 17 28 15 25 11 19 15 27 14 27 10 19 17 35 13 29 13 32 12 32 5-1 15-11 20-14 16-12 14-11 14-12 15-14 15-15 7-8 13-15 11-14 9-13 9-15 8-14 10-22 10-30 5-26 2-23-1-23-3-22-5-21-8-24-7-16-11-21-14-22-14-18-8-10-9-10-7-8-17-17-8-7-10-9-14-11-15-12-18-13-24-16zm-1256 131-8 11-12 15-10 13-12 16-11 15-9 13-12 17-11 16-16 24-2 5 19 28 11 16 13 19 14 19 12 16 16 21 13 16 6 7h1l-1-23-2-41-1-39v-78l2-64 2-34v-8zm974 1 3 67 1 39v79l-2 61-2 39h3l11-14 14-18 12-16 28-38 12-17 25-37-1-5-16-24-8-11-11-16-14-20-16-21-14-19-12-15-10-13zm-1098 173-10 18-17 28-25 45-13 24-20 40-16 36-12 28-13 34-3 10 23 13 46 23 36 16 34 13 35 13 42 14 54 16 20 6h2l-1-9-10-51-9-54-7-51-4-36-2-7-14-17-13-16-12-15-12-16-14-18-13-18-14-19-12-17-22-32zm1221 0-7 10-10 15-16 23-28 38-30 39-8 10-14 17-11 13-4 7-3 21-5 42-6 41-11 62-7 35 1 4 71-21 43-14 54-20 32-13 22-10 16-8 23-11 22-12 8-5-3-11-7-18-17-41-13-29-16-34-16-31-13-23-15-27-16-27-13-21zm-1095 113m41 102 7 50 9 53 13 64 4 4 47 10 50 9 54 8 15 2-2-4-9-8-14-14-8-7-24-22-12-12-8-7-49-49-7-8-13-13-7-8-12-13-22-24-6-7zm887 1-7 7-9 11-8 8-7 8-7 7-7 8-29 31-11 11v2h-2l-7 8-8 8-8 7-18 18-8 7-10 10-8 7-16 15-13 12-12 11-1 2 16-1 53-8 54-10 43-9 3-1 12-58 10-57 7-49v-5zm-1194 78-10 33-11 44-7 37-3 21-3 29-1 24v22l2 30 4 28 6 25 10 30 8 17 10 17 12 17 12 14 14 14 14 11 13 9 13 8 23 11 21 8 21 6 30 5 19 2 19 1h25l37-2 37-5 40-8 48-12 23-7 1-5-12-22-8-16-14-29-15-34-16-41-15-43-15-46-12-43-8-31-2-3-55-14-37-11-50-17-33-12-30-12-28-12-48-23-22-12-5-3zm1501 1-42 22-32 15-30 13-42 16-43 15-36 12-43 12-39 10-3 7-14 53-13 43-2 9 5 5 7 6 11 14 9 19 4 17 1 8v11l-3 19-6 15-8 14-11 12-12 10-16 8-18 6-16 2h-15l-3 5-14 27v2l18 6 37 10 26 6 38 7 32 4 36 2h25l28-2 23-3 24-5 27-9 24-11 18-10 17-12 21-18 9-11 13-17 10-15 7-14 7-15 7-19 7-27 4-21 3-30v-54l-3-34-6-39-8-37-8-31-8-27zm-1155 124 4 18 12 42 11 35 15 44 13 34 15 35 16 34 12 24 12 22 3 4 5-1 62-25 28-13 33-15 22-11 22-12 27-15 23-13 20-12 21-13v-3l-16-10-14-10-19-13-13-10-19-14-17-13-30-23-17-14-14-11-10-8-6-2-73-9-47-7-63-12-14-3zm810 0-63 12-41 7-61 8-35 4-6 3-11 9-16 13-14 11-16 12-26 20-38 28-17 12-23 16-7 4 2 4 26 16 24 14 27 15 16 9 14 8 48 24 34 15 27 11 44 18h2l7-12 7-14 3-5-1-5-11-7-11-10-10-13-8-16-4-13-2-11v-23l4-17 5-11 7-12 9-10 5-5 11-9 16-8 12-4 10-2h21l12 2 5 1 3-8 12-40 10-37v-4zm-547 37 6 7 30 23 19 14 16 12 18 13 20 14 32 22 6-1 17-12 19-13 18-13 17-12 19-14 26-20 18-14 5-4v-2h-11l-59 3-57 1h-27l-65-1-57-3zm142 144-21 13-40 24-16 9-26 14-18 10-16 9-28 13-36 17-33 14-35 13-6 2 2 5 11 17 14 20 10 13 13 16 9 10 7 8 9 10 19 19 8 7 14 12 18 13 15 10 24 13 17 8 21 7 25 6 20 3 11 1h18l18-2 25-5 25-7 18-7 19-10 16-9 20-14 13-10 14-12 12-11 21-21 7-8 12-14 11-14 13-17 9-13 14-21v-3l-34-12-31-13-26-12-30-14-21-10-23-13-21-11-23-13-29-17-24-15-13-8z" fill="#803EB0"/>
<path transform="translate(790,791)" d="m0 0h101l5 4 10 14 16 21 8 11 24 32 14 19 16 21 14 19 16 21 13 18 10 13 14 19 10 13 14 19 16 21 9 12 2 3v-187l1-93h107l1 1v455l-55 1h-46l-5-5-8-10-14-19-16-21-14-19-12-16-14-19-16-21-14-19-16-21-8-11-12-16-14-19-16-21-10-14-21-27h-1v276l-7 2h-101l-2-1v-455z" fill="#803EB0"/>
</svg>
